<svg xmlns="http://www.w3.org/2000/svg" viewBox="0 0 45.73 45.73"><g id="Layer_2" data-name="Layer 2"><g id="Layer_3" data-name="Layer 3"><path d="M42.73,3V42.73H3V3H42.73m3-3H0V45.73H45.73V0Z"/><path d="M14.63,8.25H12.18v6.48H9.84V8.25H7.38v-2h7.25Z"/><path d="M9.55,22.37v4.19H7.21V18H9l3.42,4.33V18H14.8v8.52H12.94Z"/><path d="M11,39.53a4.25,4.25,0,0,1-1.77-.37,4.35,4.35,0,0,1-1.35-1A4.49,4.49,0,0,1,7,36.79a4.26,4.26,0,0,1,.92-4.6,4.47,4.47,0,0,1,1.38-.95A4.33,4.33,0,0,1,11,30.89a4.1,4.1,0,0,1,1.77.37,4.19,4.19,0,0,1,1.35,1,4.33,4.33,0,0,1,.87,1.4,4.21,4.21,0,0,1,.31,1.59A4.29,4.29,0,0,1,15,36.85a4.4,4.4,0,0,1-2.28,2.32A4.17,4.17,0,0,1,11,39.53ZM9.05,35.21a2.87,2.87,0,0,0,.12.83,2.07,2.07,0,0,0,.36.71,1.89,1.89,0,0,0,.61.51,1.8,1.8,0,0,0,.87.19,1.77,1.77,0,0,0,1.48-.71,2.25,2.25,0,0,0,.35-.73,3.05,3.05,0,0,0,0-1.66,2.16,2.16,0,0,0-.36-.71,1.94,1.94,0,0,0-.61-.49,2,2,0,0,0-1.73,0,1.59,1.59,0,0,0-.61.51,2,2,0,0,0-.35.72A2.81,2.81,0,0,0,9.05,35.21Z"/><path d="M26.6,6.21v8.52H24.26V11.39H21.41v3.34H19.07V6.21h2.34V9.35h2.85V6.21Z"/><path d="M21.77,18.57h2.14l2.95,8.52H24.48L24,25.42H21.7l-.5,1.67H18.81Zm1.83,5.29-.76-2.64-.79,2.64Z"/><path d="M22.82,39.53a4.25,4.25,0,0,1-1.77-.37,4.35,4.35,0,0,1-1.35-1,4.49,4.49,0,0,1-.88-1.39,4.26,4.26,0,0,1,.92-4.6,4.47,4.47,0,0,1,1.38-.95,4.33,4.33,0,0,1,1.74-.35,4.1,4.1,0,0,1,1.77.37,4.19,4.19,0,0,1,1.35,1,4.33,4.33,0,0,1,.87,1.4,4.21,4.21,0,0,1,.31,1.59,4.29,4.29,0,0,1-.32,1.62,4.4,4.4,0,0,1-2.28,2.32A4.17,4.17,0,0,1,22.82,39.53Zm-1.94-4.32A2.87,2.87,0,0,0,21,36a2.07,2.07,0,0,0,.36.71,1.89,1.89,0,0,0,.61.51,1.8,1.8,0,0,0,.87.19,1.77,1.77,0,0,0,1.48-.71,2.25,2.25,0,0,0,.35-.73,3.05,3.05,0,0,0,0-1.66,2.16,2.16,0,0,0-.36-.71,1.94,1.94,0,0,0-.61-.49,2,2,0,0,0-1.73,0,1.59,1.59,0,0,0-.61.51,2,2,0,0,0-.35.72A2.81,2.81,0,0,0,20.88,35.21Z"/><path d="M33.6,6.21h2.14l2.95,8.52H36.31l-.51-1.67H33.53L33,14.73H30.64Zm1.82,5.29-.75-2.64-.79,2.64Z"/><path d="M31.39,27.49V19h3.67a2.66,2.66,0,0,1,1.16.26,3,3,0,0,1,.9.67,3.33,3.33,0,0,1,.6,1,2.91,2.91,0,0,1,.21,1.07,3.15,3.15,0,0,1-.2,1.1,3.25,3.25,0,0,1-.57.95,2.65,2.65,0,0,1-.89.66,2.73,2.73,0,0,1-1.15.25H33.73v2.61Zm2.34-4.65H35a.55.55,0,0,0,.4-.2,1.07,1.07,0,0,0,.19-.72,1,1,0,0,0-.22-.72.69.69,0,0,0-.43-.19H33.73Z"/><path d="M36.71,39.46V35l-1.42,3.15H34L32.61,35v4.49H30.27V30.94h2.56l1.83,4,1.85-4h2.54v8.52Z"/></g></g></svg>