<svg xmlns="http://www.w3.org/2000/svg" viewBox="0 0 347.19 347.19"><g id="Layer_2" data-name="Layer 2"><g id="Layer_3" data-name="Layer 3"><path d="M339.11,70.36a117.68,117.68,0,0,0-22.27-35.51A112.24,112.24,0,0,0,282.9,9.66,97.06,97.06,0,0,0,239.73,0H0V76.43H102.16V347.19h87.66v-126H242a99.48,99.48,0,0,0,42.94-9.2,101.76,101.76,0,0,0,33.27-24.74,115.14,115.14,0,0,0,21.35-35.53,113.87,113.87,0,0,0,7.65-41.12A106.65,106.65,0,0,0,339.11,70.36Zm-87.91,67c-4.65,4.94-9.66,7.43-15.06,7.43H189.82V76.43h44.07q8.1,0,16.19,7.19t8.09,27Q258.17,129.93,251.2,137.35Z"/></g></g></svg>