<svg xmlns="http://www.w3.org/2000/svg" viewBox="0 0 407.3 337.77"><g id="Layer_2" data-name="Layer 2"><g id="Layer_3" data-name="Layer 3"><path d="M399.22,70.36A117.68,117.68,0,0,0,377,34.85,112.32,112.32,0,0,0,343,9.66,97.1,97.1,0,0,0,299.84,0H0V76.43H162.27V337.77h87.67V221.2h52.15A99.48,99.48,0,0,0,345,212a101.91,101.91,0,0,0,33.28-24.74,115.33,115.33,0,0,0,21.35-35.53,114.08,114.08,0,0,0,7.64-41.12A106.65,106.65,0,0,0,399.22,70.36Zm-87.91,67c-4.64,4.94-9.66,7.43-15.05,7.43H249.94V76.43H294q8.08,0,16.19,7.19t8.08,27Q318.28,129.93,311.31,137.35Z"/></g></g></svg>